#!OML:ASF F:\VICON\USERDATA\INSTALL\rory3\rory3.ASF
:FULLY-SPECIFIED
:DEGREES
63
root 10.8133 17.9023 -11.2985 -2.83545 -10.4089 -1.25353
lowerback 10.443 2.56741 2.42612
upperback 0.334299 3.72714 0.461919
thorax -5.37914 1.77853 -1.43154
lowerneck -18.4731 -7.63474 -13.3703
upperneck 27.8471 -10.4198 11.5134
head 13.939 -4.53565 4.9962
rclavicle -1.5499e-014 4.27387e-015
rhumerus -31.4148 -9.81539 -84.3608
rradius 35.8978
rwrist 3.14061
rhand -16.1501 8.26646
rfingers 7.12502
rthumb 10.0554 -21.4733
lclavicle -1.5499e-014 4.27387e-015
lhumerus -38.9307 9.30419 79.1576
lradius 26.8394
lwrist -10.2535
lhand -19.817 25.3429
lfingers 7.12502
lthumb 6.51651 55.2226
rfemur 1.02946 -0.513 31.2718
rtibia 19.9774
rfoot -13.5475 2.59285
rtoes 15.2592
lfemur -20.775 -3.53246 -14.176
ltibia 49.6019
lfoot -4.22636 1.26222
ltoes -9.28084
64
root 10.7963 17.9056 -11.1753 -2.71294 -10.7885 -1.18431
lowerback 10.346 2.63453 2.4704
upperback 0.265194 3.81594 0.381558
thorax -5.3855 1.8197 -1.54954
lowerneck -18.4936 -7.61713 -13.3965
upperneck 27.8541 -10.4192 11.6172
head 13.9557 -4.52515 5.04438
rclavicle -3.11378e-014 -1.09332e-014
rhumerus -31.2596 -9.43025 -84.5886
rradius 36.3755
rwrist 3.06358
rhand -16.0914 8.02266
rfingers 7.12502
rthumb 10.112 -21.7144
lclavicle -3.11378e-014 -1.09332e-014
lhumerus -39.0138 9.33622 79.1196
lradius 26.6121
lwrist -10.4713
lhand -20.3042 25.8429
lfingers 7.12502
lthumb 6.0461 55.7367
rfemur 1.47908 -0.553713 31.1241
rtibia 19.7101
rfoot -13.7526 2.97026
rtoes 14.0531
lfemur -21.0947 -3.99979 -14.182
ltibia 47.6101
lfoot -4.52192 1.9607
ltoes -6.55711
65
root 10.778 17.9081 -11.0495 -2.62101 -11.0759 -1.16461
lowerback 10.2249 2.68984 2.57162
upperback 0.262655 3.89507 0.332657
thorax -5.30691 1.85719 -1.66128
lowerneck -18.5444 -7.63261 -13.3924
upperneck 27.7862 -10.4305 11.6204
head 13.9393 -4.52744 5.03878
rclavicle 4.05024e-015 -4.07509e-015
rhumerus -31.0962 -8.97478 -84.7756
rradius 37.0052
rwrist 3.00019
rhand -16.0591 7.01608
rfingers 7.12502
rthumb 10.1431 -22.7194
lclavicle 4.05024e-015 -4.07509e-015
lhumerus -39.0886 9.54267 79.0359
lradius 26.4414
lwrist -11.2022
lhand -19.0266 27.3033
lfingers 7.12502
lthumb 7.27951 57.1581
rfemur 1.94171 -0.790949 31.0049
rtibia 19.5234
rfoot -14.0009 3.383
rtoes 13.6248
lfemur -21.3191 -4.39984 -14.1232
ltibia 45.5274
lfoot -4.81732 2.5197
ltoes -3.73889
66
root 10.7594 17.8979 -10.9309 -2.54097 -11.3557 -1.20469
lowerback 10.2377 2.73152 2.68799
upperback 0.200971 3.96482 0.311161
thorax -5.36652 1.88658 -1.76114
lowerneck -18.5581 -7.62065 -13.3111
upperneck 27.7536 -10.3948 11.5005
head 13.9079 -4.51775 4.97986
rclavicle -4.12571e-014 5.96354e-015
rhumerus -31.0218 -8.55629 -84.903
rradius 37.4282
rwrist 2.83094
rhand -16.0288 6.82348
rfingers 7.12502
rthumb 10.1723 -22.9106
lclavicle -4.12571e-014 5.96354e-015
lhumerus -39.2991 9.80021 78.8426
lradius 26.4986
lwrist -12.3091
lhand -16.9587 27.0576
lfingers 7.12502
lthumb 9.27517 56.8336
rfemur 2.39135 -0.745543 31.0254
rtibia 19.4145
rfoot -14.1939 3.51054
rtoes 14.2472
lfemur -21.4278 -4.45445 -14.0482
ltibia 43.3829
lfoot -4.91351 2.80128
ltoes -7.47216
67
root 10.741 17.8814 -10.8118 -2.45972 -11.7281 -1.20727
lowerback 10.1978 2.81477 2.75654
upperback 0.144096 4.0826 0.291287
thorax -5.39238 1.9416 -1.83614
lowerneck -18.5992 -7.60833 -13.3852
upperneck 27.805 -10.3754 11.5685
head 13.9457 -4.5078 5.02647
rclavicle -7.50008e-014 1.09332e-015
rhumerus -30.893 -8.1828 -85.0038
rradius 37.6535
rwrist 2.52242
rhand -16.2206 7.33386
rfingers 7.12502
rthumb 9.98733 -22.4092
lclavicle -7.50008e-014 1.09332e-015
lhumerus -39.5456 10.1428 78.6247
lradius 26.6501
lwrist -13.5272
lhand -18.173 23.4724
lfingers 7.12502
lthumb 8.10339 53.297
rfemur 2.77846 -0.541429 31.0163
rtibia 19.442
rfoot -14.4533 3.5864
rtoes 14.73
lfemur -21.4507 -4.32621 -14.0439
ltibia 41.1455
lfoot -4.92703 2.79926
ltoes -12.3466
68
root 10.7207 17.8698 -10.6938 -2.32456 -12.0922 -1.28754
lowerback 10.1455 2.89318 2.86304
upperback 0.105384 4.199 0.298804
thorax -5.3912 1.99597 -1.902
lowerneck -18.7079 -7.61415 -13.4657
upperneck 27.8223 -10.3871 11.6935
head 13.9933 -4.50239 5.08951
rclavicle -2.65564e-015 -1.22253e-014
rhumerus -30.673 -7.82515 -85.1395
rradius 37.9056
rwrist 2.24761
rhand -16.4791 7.45969
rfingers 7.12502
rthumb 9.73793 -22.2952
lclavicle -2.65564e-015 -1.22253e-014
lhumerus -39.6104 10.3193 78.5654
lradius 26.5563
lwrist -14.074
lhand -20.1705 20.9601
lfingers 7.12502
lthumb 6.17522 50.8501
rfemur 3.10728 -0.361439 31.0874
rtibia 19.5255
rfoot -14.7014 3.7017
rtoes 14.9277
lfemur -21.5014 -4.34957 -13.9151
ltibia 38.7956
lfoot -4.92237 2.76998
ltoes -13.6512
69
root 10.7004 17.8663 -10.5736 -2.15819 -12.4108 -1.35414
lowerback 10.0981 2.96059 2.98301
upperback 0.0681357 4.30105 0.282397
thorax -5.38877 2.04263 -1.99831
lowerneck -18.8802 -7.65722 -13.5131
upperneck 27.797 -10.4412 11.7873
head 14.0391 -4.51318 5.12222
rclavicle -6.46982e-014 5.06901e-015
rhumerus -30.4845 -7.63274 -85.2303
rradius 38.1609
rwrist 2.186
rhand -16.6217 7.51872
rfingers 7.12502
rthumb 9.60034 -22.2425
lclavicle -6.46982e-014 5.06901e-015
lhumerus -39.4744 10.289 78.6009
lradius 26.3001
lwrist -14.2297
lhand -20.7358 19.8924
lfingers 7.12502
lthumb 5.62943 49.7976
rfemur 3.45015 -0.294232 31.1187
rtibia 19.5287
rfoot -14.9576 3.85803
rtoes 15.2722
lfemur -21.5587 -4.49634 -13.8087
ltibia 36.3195
lfoot -5.03425 2.73663
ltoes -13.5369
70
root 10.6839 17.8648 -10.4407 -2.05875 -12.8313 -1.33623
lowerback 9.93385 3.05807 3.14026
upperback 0.0805594 4.43904 0.217425
thorax -5.2593 2.10916 -2.16084
lowerneck -19.0587 -7.70026 -13.5031
upperneck 27.7952 -10.4736 11.7544
head 14.0794 -4.52377 5.0968
rclavicle 5.07957e-014 9.74045e-015
rhumerus -30.4009 -7.37149 -85.303
rradius 38.4802
rwrist 2.07346
rhand -16.6202 7.48687
rfingers 7.12502
rthumb 9.60176 -22.2743
lclavicle 5.07957e-014 9.74045e-015
lhumerus -39.3499 10.1483 78.6956
lradius 26.146
lwrist -14.2131
lhand -21.0898 19.5904
lfingers 7.12502
lthumb 5.28763 49.5044
rfemur 3.97127 -0.363603 30.9965
rtibia 19.3346
rfoot -15.2708 4.06417
rtoes 14.4787
lfemur -21.5124 -4.46248 -13.863
ltibia 33.8667
lfoot -5.51465 2.54656
ltoes -14.1023
71
root 10.6654 17.8596 -10.3095 -1.94934 -13.2548 -1.33063
lowerback 9.75881 3.14603 3.25524
upperback 0.0834966 4.5598 0.166996
thorax -5.13822 2.16846 -2.28119
lowerneck -19.2438 -7.69335 -13.3877
upperneck 27.8618 -10.4491 11.6446
head 14.128 -4.50796 5.03529
rclavicle -2.21459e-014 1.5704e-014
rhumerus -30.3157 -7.09057 -85.3964
rradius 38.7703
rwrist 1.95087
rhand -16.596 7.4594
rfingers 7.12502
rthumb 9.62515 -22.3007
lclavicle -2.21459e-014 1.5704e-014
lhumerus -39.3004 10.1291 78.7675
lradius 26.142
lwrist -14.0014
lhand -20.6559 20.6408
lfingers 7.12502
lthumb 5.70654 50.544
rfemur 4.48735 -0.450407 30.8988
rtibia 19.1125
rfoot -15.6555 4.24903
rtoes 12.8492
lfemur -21.4433 -4.41575 -13.8974
ltibia 31.3522
lfoot -5.37298 2.25942
ltoes -15.1214
72
root 10.6415 17.856 -10.1928 -1.74662 -13.4706 -1.53677
lowerback 9.70229 3.15301 3.49022
upperback 0.0361572 4.59543 0.182738
thorax -5.13729 2.17984 -2.39801
lowerneck -19.3127 -7.67098 -13.3152
upperneck 27.7746 -10.4271 11.6585
head 14.0974 -4.48648 5.02814
rclavicle 2.74105e-014 -7.85199e-015
rhumerus -30.145 -6.95729 -85.4775
rradius 38.9218
rwrist 2.02531
rhand -16.6689 7.59875
rfingers 7.12502
rthumb 9.55482 -22.1646
lclavicle 2.74105e-014 -7.85199e-015
lhumerus -39.3864 10.1437 78.8146
lradius 26.4247
lwrist -13.7397
lhand -20.217 21.1799
lfingers 7.12502
lthumb 6.13035 51.0712
rfemur 4.92653 -0.530138 31.0968
rtibia 18.7878
rfoot -15.7598 4.33708
rtoes 12.1063
lfemur -21.3954 -4.46068 -13.6724
ltibia 28.9262
lfoot -4.52429 1.87961
ltoes -17.2196
73
root 10.6202 17.8405 -10.0742 -1.65804 -13.6437 -1.5921
lowerback 9.728 3.16432 3.60892
upperback 0.0249398 4.62419 0.166051
thorax -5.15108 2.19027 -2.48716
lowerneck -19.3261 -7.65259 -13.4123
upperneck 27.616 -10.4161 11.8653
head 14.0519 -4.46594 5.12718
rclavicle 3.90146e-014 -1.78906e-015
rhumerus -29.9419 -6.95116 -85.4974
rradius 38.9605
rwrist 2.1038
rhand -16.647 7.93389
rfingers 7.12502
rthumb 9.57596 -21.8285
lclavicle 3.90146e-014 -1.78906e-015
lhumerus -39.43 10.0703 78.8883
lradius 26.6296
lwrist -13.59
lhand -19.9841 21.1972
lfingers 7.12502
lthumb 6.35513 51.0819
rfemur 5.43058 -0.701466 31.1037
rtibia 18.5001
rfoot -15.875 4.42503
rtoes 11.7354
lfemur -21.4398 -4.74146 -13.5485
ltibia 26.4919
lfoot -4.77006 1.60056
ltoes -14.7878
